<svg width="60" height="59" viewBox="0 0 60 59" fill="none" xmlns="http://www.w3.org/2000/svg">
<g filter="url(#filter0_d_1722_8153)">
<circle cx="30" cy="26" r="26" fill="#447D69"/>
</g>
<g clip-path="url(#clip0_1722_8153)">
<path d="M27.7169 33.2846C27.5308 33.4718 27.2768 33.5763 27.013 33.5763C26.7492 33.5763 26.4952 33.4718 26.3091 33.2846L20.6875 27.6621C20.1042 27.0787 20.1042 26.1327 20.6875 25.5504L21.3914 24.8463C21.975 24.2629 22.9199 24.2629 23.5033 24.8463L27.013 28.3562L36.4966 18.8724C37.0802 18.289 38.026 18.289 38.6085 18.8724L39.3124 19.5764C39.8958 20.1598 39.8958 21.1057 39.3124 21.6882L27.7169 33.2846Z" fill="white"/>
</g>
<defs>
<filter id="filter0_d_1722_8153" x="0.75" y="0" width="58.5" height="58.5" filterUnits="userSpaceOnUse" color-interpolation-filters="sRGB">
<feFlood flood-opacity="0" result="BackgroundImageFix"/>
<feColorMatrix in="SourceAlpha" type="matrix" values="0 0 0 0 0 0 0 0 0 0 0 0 0 0 0 0 0 0 127 0" result="hardAlpha"/>
<feOffset dy="3.25"/>
<feGaussianBlur stdDeviation="1.625"/>
<feComposite in2="hardAlpha" operator="out"/>
<feColorMatrix type="matrix" values="0 0 0 0 0 0 0 0 0 0 0 0 0 0 0 0 0 0 0.25 0"/>
<feBlend mode="normal" in2="BackgroundImageFix" result="effect1_dropShadow_1722_8153"/>
<feBlend mode="normal" in="SourceGraphic" in2="effect1_dropShadow_1722_8153" result="shape"/>
</filter>
<clipPath id="clip0_1722_8153">
<rect width="19.5" height="19.5" fill="white" transform="translate(20.25 16.25)"/>
</clipPath>
</defs>
</svg>
