<svg width="25" height="25" viewBox="0 0 25 25" fill="none" xmlns="http://www.w3.org/2000/svg">
<circle cx="12.5" cy="12.5" r="12.5" fill="#515454"/>
<g clip-path="url(#clip0_1722_8224)">
<path d="M11.5537 13.5752L7.21967 17.9096L7.23213 15.2679C7.23213 15.0461 7.05213 14.8661 6.83034 14.8661C6.60856 14.8661 6.42856 15.0461 6.42856 15.2679V18.8839C6.42856 19.0029 6.47757 19.0989 6.55551 19.1648C6.62824 19.2391 6.7295 19.2857 6.842 19.2857H10.4464C10.6682 19.2857 10.8482 19.1058 10.8482 18.8839C10.8482 18.6622 10.6682 18.4822 10.4464 18.4822H7.78297L12.1219 14.1437L11.5537 13.5752ZM19.1587 6.54953C19.086 6.47521 18.9848 6.42859 18.8727 6.42859H15.2678C15.0461 6.42859 14.8661 6.60859 14.8661 6.83037C14.8661 7.05216 15.0461 7.23216 15.2678 7.23216H17.9309L13.5924 11.571L14.1605 12.1392L18.495 7.8047L18.4821 10.4464C18.4821 10.6682 18.6621 10.8482 18.8839 10.8482C19.1057 10.8482 19.2857 10.6682 19.2857 10.4464V6.83037C19.2857 6.71145 19.2367 6.61544 19.1587 6.54953Z" fill="#E9E9E9"/>
</g>
<defs>
<clipPath id="clip0_1722_8224">
<rect width="12.8571" height="12.8571" fill="white" transform="translate(6.42856 6.42859)"/>
</clipPath>
</defs>
</svg>
