<svg width="72" height="71" viewBox="0 0 72 71" fill="none" xmlns="http://www.w3.org/2000/svg">
<g filter="url(#filter0_d_1722_8250)">
<circle cx="36" cy="32" r="32" fill="#C06464"/>
</g>
<g clip-path="url(#clip0_1722_8250)">
<path d="M28.123 17.2312C24.3282 17.2312 21.2307 20.3286 21.2307 24.1235C21.2307 27.9183 24.3282 31.0158 28.123 31.0158C28.2907 31.0158 28.4545 31.0027 28.6192 30.9908L23.4961 39.8254V39.8273C23.3032 40.138 23.2007 40.4962 23.1999 40.8619C23.1999 41.3842 23.4074 41.8851 23.7767 42.2544C24.146 42.6237 24.6469 42.8312 25.1692 42.8312C25.2154 42.8309 25.2616 42.8289 25.3076 42.8254L25.3115 42.8312H35.9999H46.6884L46.6922 42.8235C46.7383 42.8276 46.7845 42.8302 46.8307 42.8312C47.353 42.8312 47.8539 42.6237 48.2232 42.2544C48.5925 41.8851 48.7999 41.3842 48.7999 40.8619C48.7996 40.4956 48.697 40.1366 48.5038 39.8254L48.4884 39.7985C48.4878 39.7978 48.4871 39.7972 48.4865 39.7965L37.8172 21.3946C37.5201 20.6839 36.8187 20.185 35.9999 20.185C35.2862 20.185 34.6664 20.5669 34.3211 21.135C33.2033 18.8311 30.8468 17.2312 28.123 17.2312ZM28.123 19.2004C30.8536 19.2004 33.0461 21.3929 33.0461 24.1235C33.0461 26.8541 30.8536 29.0465 28.123 29.0465C25.3924 29.0465 23.1999 26.8541 23.1999 24.1235C23.1999 21.3929 25.3924 19.2004 28.123 19.2004ZM28.1076 20.1715C27.8468 20.1756 27.5983 20.283 27.4166 20.4701C27.2349 20.6572 27.1348 20.9088 27.1384 21.1696V23.7158L25.9499 24.9042C25.8554 24.995 25.78 25.1036 25.728 25.2239C25.6761 25.3441 25.6486 25.4735 25.6473 25.6045C25.6459 25.7355 25.6708 25.8655 25.7203 25.9867C25.7698 26.108 25.843 26.2182 25.9356 26.3108C26.0283 26.4035 26.1385 26.4767 26.2597 26.5262C26.381 26.5757 26.511 26.6005 26.6419 26.5992C26.7729 26.5979 26.9024 26.5704 27.0226 26.5184C27.1429 26.4665 27.2515 26.391 27.3423 26.2965L29.1076 24.5312V21.1696C29.1094 21.0379 29.0848 20.9071 29.0352 20.7851C28.9855 20.6631 28.9119 20.5522 28.8186 20.4592C28.7254 20.3661 28.6144 20.2927 28.4923 20.2433C28.3702 20.1939 28.2394 20.1695 28.1076 20.1715ZM34.8057 28.4158H37.1942L36.9961 34.7888H35.0038L34.8057 28.4158ZM36.0038 36.7369C36.8131 36.7369 37.298 37.1724 37.298 37.9158C37.298 38.6454 36.8131 39.0792 36.0038 39.0792C35.1885 39.0792 34.6999 38.6454 34.6999 37.9158C34.6999 37.1724 35.1875 36.7369 36.0038 36.7369Z" fill="#FFD9D9"/>
</g>
<defs>
<filter id="filter0_d_1722_8250" x="0.75" y="0" width="70.5" height="70.5" filterUnits="userSpaceOnUse" color-interpolation-filters="sRGB">
<feFlood flood-opacity="0" result="BackgroundImageFix"/>
<feColorMatrix in="SourceAlpha" type="matrix" values="0 0 0 0 0 0 0 0 0 0 0 0 0 0 0 0 0 0 127 0" result="hardAlpha"/>
<feOffset dy="3.25"/>
<feGaussianBlur stdDeviation="1.625"/>
<feComposite in2="hardAlpha" operator="out"/>
<feColorMatrix type="matrix" values="0 0 0 0 0 0 0 0 0 0 0 0 0 0 0 0 0 0 0.25 0"/>
<feBlend mode="normal" in2="BackgroundImageFix" result="effect1_dropShadow_1722_8250"/>
<feBlend mode="normal" in="SourceGraphic" in2="effect1_dropShadow_1722_8250" result="shape"/>
</filter>
<clipPath id="clip0_1722_8250">
<rect width="29.5385" height="29.5385" fill="white" transform="translate(21.2307 17.2312)"/>
</clipPath>
</defs>
</svg>
