<svg width="72" height="72" viewBox="0 0 72 72" fill="none" xmlns="http://www.w3.org/2000/svg">
<g filter="url(#filter0_d_1722_8440)">
<circle cx="36" cy="32" r="32" fill="#C06464"/>
<path d="M36 46.7692C39.9385 46.7692 43.6308 45.2103 46.4205 42.4205C49.2103 39.6308 50.7692 35.9385 50.7692 32C50.7692 28.0615 49.2103 24.3692 46.4205 21.5795C43.6308 18.7897 39.9385 17.2308 36 17.2308C32.0615 17.2308 28.3692 18.7897 25.5795 21.5795C22.7897 24.3692 21.2308 28.0615 21.2308 32C21.2308 35.9385 22.7897 39.6308 25.5795 42.4205C28.3692 45.2103 32.0615 46.7692 36 46.7692ZM47.4872 32C47.4872 35.0359 46.2564 37.9077 44.1231 40.1231C41.9077 42.2564 39.0359 43.4872 36 43.4872C33.4564 43.4872 31.0769 42.6667 29.1077 41.1897L45.1897 25.1077C46.6667 27.0769 47.4872 29.4564 47.4872 32ZM27.8769 23.8769C30.0103 21.7436 32.9641 20.5128 36 20.5128C38.5436 20.5128 40.9231 21.3333 42.8923 22.8103L26.8103 38.8923C25.3333 36.9231 24.5128 34.5436 24.5128 32C24.5128 28.9641 25.7436 26.0103 27.8769 23.8769Z" fill="#FFD9D9"/>
</g>
<defs>
<filter id="filter0_d_1722_8440" x="0" y="0" width="72" height="72" filterUnits="userSpaceOnUse" color-interpolation-filters="sRGB">
<feFlood flood-opacity="0" result="BackgroundImageFix"/>
<feColorMatrix in="SourceAlpha" type="matrix" values="0 0 0 0 0 0 0 0 0 0 0 0 0 0 0 0 0 0 127 0" result="hardAlpha"/>
<feOffset dy="4"/>
<feGaussianBlur stdDeviation="2"/>
<feComposite in2="hardAlpha" operator="out"/>
<feColorMatrix type="matrix" values="0 0 0 0 0 0 0 0 0 0 0 0 0 0 0 0 0 0 0.25 0"/>
<feBlend mode="normal" in2="BackgroundImageFix" result="effect1_dropShadow_1722_8440"/>
<feBlend mode="normal" in="SourceGraphic" in2="effect1_dropShadow_1722_8440" result="shape"/>
</filter>
</defs>
</svg>
