<svg width="72" height="71" viewBox="0 0 72 71" fill="none" xmlns="http://www.w3.org/2000/svg">
<g filter="url(#filter0_d_1722_8293)">
<circle cx="36" cy="32" r="32" fill="#446C7D"/>
</g>
<g clip-path="url(#clip0_1722_8293)">
<path d="M57.9234 28.1704C57.5182 27.5227 57.1354 26.9109 56.9921 26.3752C56.8379 25.798 56.8621 25.0516 56.8878 24.2613C56.9291 22.9915 56.9758 21.5521 56.2539 20.3044C55.522 19.0394 54.242 18.3586 53.1128 17.7581C52.4236 17.3916 51.7727 17.0454 51.3636 16.6363C50.9546 16.2272 50.6084 15.5762 50.2418 14.8871C49.6412 13.7578 48.9605 12.4779 47.6953 11.7459C46.4477 11.0241 45.0085 11.0705 43.7385 11.1121C42.9481 11.1376 42.2017 11.1619 41.6246 11.0077C41.0888 10.8644 40.4771 10.4816 39.8293 10.0763C38.7349 9.39165 37.4943 8.61536 36 8.61536C34.5057 8.61536 33.2651 9.39165 32.1705 10.0764C31.5229 10.4817 30.911 10.8646 30.3753 11.0078C29.798 11.162 29.0517 11.1377 28.2614 11.1122C26.9916 11.0707 25.5522 11.0242 24.3046 11.746C23.0394 12.478 22.3588 13.7579 21.7581 14.8872C21.3916 15.5763 21.0454 16.2273 20.6363 16.6364C20.2273 17.0453 19.5764 17.3916 18.8872 17.7581C17.7579 18.3586 16.478 19.0394 15.746 20.3045C15.0241 21.5522 15.0709 22.9916 15.112 24.2614C15.1377 25.0517 15.1619 25.7982 15.0076 26.3754C14.8644 26.9111 14.4816 27.5229 14.0763 28.1706C13.3917 29.2651 12.6154 30.5057 12.6154 32C12.6154 33.4943 13.3917 34.7349 14.0766 35.8295C14.4818 36.4772 14.8646 37.0891 15.0079 37.6247C15.1621 38.202 15.1379 38.9483 15.1122 39.7386C15.071 41.0085 15.0242 42.4478 15.7461 43.6955C16.478 44.9606 17.758 45.6413 18.8872 46.2418C19.5764 46.6084 20.2273 46.9545 20.6364 47.3637C21.0454 47.7727 21.3916 48.4237 21.7582 49.1128C22.3588 50.2422 23.0395 51.5221 24.3047 52.254C25.5523 52.9759 26.9914 52.9295 28.2615 52.8879C29.0518 52.8623 29.7983 52.8381 30.3755 52.9923C30.9112 53.1355 31.523 53.5183 32.1707 53.9236C33.2651 54.6083 34.5057 55.3846 36 55.3846C37.4943 55.3846 38.7349 54.6083 39.8295 53.9235C40.4771 53.5182 41.089 53.1353 41.6247 52.9922C42.202 52.8379 42.9483 52.8622 43.7387 52.8878C45.0084 52.9294 46.4479 52.9759 47.6954 52.2539C48.9606 51.522 49.6412 50.242 50.2419 49.1127C50.6084 48.4236 50.9546 47.7726 51.3637 47.3636C51.7727 46.9546 52.4236 46.6084 53.1128 46.2418C54.2421 45.6413 55.522 44.9606 56.254 43.6954C56.9759 42.4477 56.9291 41.0084 56.888 39.7385C56.8623 38.9482 56.8381 38.2018 56.9924 37.6245C57.1356 37.0888 57.5184 36.477 57.9237 35.8293C58.6083 34.7349 59.3846 33.4943 59.3846 32C59.3846 30.5057 58.6083 29.2651 57.9234 28.1704ZM55.5821 34.3644C55.0865 35.1563 54.5741 35.9753 54.3239 36.9115C54.0642 37.8833 54.0962 38.872 54.1272 39.8283C54.1593 40.8157 54.1896 41.7482 53.8632 42.3123C53.5271 42.8932 52.6958 43.3353 51.8157 43.8033C50.9778 44.249 50.1113 44.7098 49.4105 45.4106C48.7097 46.1114 48.2488 46.9778 47.8032 47.8158C47.3352 48.6959 46.8931 49.5272 46.3123 49.8632C45.7482 50.1896 44.8155 50.1594 43.8282 50.1273C42.872 50.0963 41.8834 50.064 40.9115 50.3238C39.9753 50.5741 39.1564 51.0865 38.3643 51.5821C37.5092 52.1172 36.7014 52.6226 36 52.6226C35.2986 52.6226 34.4909 52.1172 33.6357 51.5821C32.8436 51.0865 32.0247 50.5741 31.0885 50.3238C30.4367 50.1496 29.7772 50.1068 29.125 50.1068C28.8049 50.1068 28.4865 50.1171 28.1718 50.1274C27.1844 50.1593 26.2518 50.1898 25.6878 49.8633C25.1068 49.5273 24.6648 48.6959 24.1968 47.8159C23.7511 46.9779 23.2903 46.1115 22.5895 45.4107C21.8887 44.7099 21.0222 44.249 20.1842 43.8033C19.3041 43.3353 18.4729 42.8932 18.1368 42.3124C17.8105 41.7482 17.8407 40.8157 17.8728 39.8284C17.9038 38.8722 17.9359 37.8834 17.6762 36.9116C17.426 35.9754 16.9136 35.1565 16.4181 34.3646C15.8828 33.5093 15.3773 32.7014 15.3773 32C15.3773 31.2985 15.8828 30.4907 16.4179 29.6355C16.9135 28.8436 17.4259 28.0247 17.6761 27.0885C17.9358 26.1166 17.9038 25.1279 17.8728 24.1716C17.8407 23.1842 17.8105 22.2517 18.1368 21.6876C18.473 21.1067 19.3042 20.6647 20.1843 20.1966C21.0222 19.7509 21.8887 19.2902 22.5895 18.5894C23.2903 17.8886 23.7512 17.0221 24.1968 16.1841C24.6648 15.304 25.1069 14.4727 25.6878 14.1367C26.2519 13.8103 27.1846 13.8407 28.1718 13.8727C29.128 13.9039 30.1167 13.936 31.0885 13.6761C32.0247 13.4259 32.8436 12.9134 33.6357 12.4178C34.4908 11.8828 35.2986 11.3773 36 11.3773C36.7014 11.3773 37.5091 11.8828 38.3643 12.4178C39.1564 12.9134 39.9753 13.4259 40.9115 13.6761C41.8833 13.9358 42.8721 13.9038 43.8282 13.8727C44.8157 13.8408 45.7482 13.8103 46.3123 14.1367C46.8932 14.4727 47.3352 15.3041 47.8032 16.1841C48.2489 17.0221 48.7097 17.8886 49.4105 18.5894C50.1113 19.2902 50.9778 19.751 51.8158 20.1967C52.6959 20.6648 53.5271 21.1069 53.8632 21.6876C54.1896 22.2518 54.1593 23.1843 54.1272 24.1716C54.0962 25.1278 54.0641 26.1166 54.3238 27.0885C54.574 28.0246 55.0865 28.8435 55.582 29.6355C56.1172 30.4907 56.6227 31.2985 56.6227 32C56.6227 32.7014 56.1172 33.5092 55.5821 34.3644Z" fill="#EEEEEE"/>
<path d="M33.4319 34.8442L29.6112 31.0236L27.6583 32.9764L33.3925 38.7107L44.3216 28.2189L42.4089 26.2263L33.4319 34.8442Z" fill="#EEEEEE"/>
<path d="M36 15.8885C27.1161 15.8885 19.8885 23.1161 19.8885 32C19.8885 40.8839 27.1161 48.1115 36 48.1115C44.8839 48.1115 52.1115 40.8839 52.1115 32C52.1115 23.1161 44.8839 15.8885 36 15.8885ZM36 45.3495C28.6391 45.3495 22.6505 39.3609 22.6505 32C22.6505 24.6391 28.6391 18.6505 36 18.6505C43.3609 18.6505 49.3495 24.6391 49.3495 32C49.3495 39.3609 43.3609 45.3495 36 45.3495Z" fill="#EEEEEE"/>
</g>
<defs>
<filter id="filter0_d_1722_8293" x="0.75" y="0" width="70.5" height="70.5" filterUnits="userSpaceOnUse" color-interpolation-filters="sRGB">
<feFlood flood-opacity="0" result="BackgroundImageFix"/>
<feColorMatrix in="SourceAlpha" type="matrix" values="0 0 0 0 0 0 0 0 0 0 0 0 0 0 0 0 0 0 127 0" result="hardAlpha"/>
<feOffset dy="3.25"/>
<feGaussianBlur stdDeviation="1.625"/>
<feComposite in2="hardAlpha" operator="out"/>
<feColorMatrix type="matrix" values="0 0 0 0 0 0 0 0 0 0 0 0 0 0 0 0 0 0 0.25 0"/>
<feBlend mode="normal" in2="BackgroundImageFix" result="effect1_dropShadow_1722_8293"/>
<feBlend mode="normal" in="SourceGraphic" in2="effect1_dropShadow_1722_8293" result="shape"/>
</filter>
<clipPath id="clip0_1722_8293">
<rect width="46.7692" height="46.7692" fill="white" transform="translate(12.6154 8.61536)"/>
</clipPath>
</defs>
</svg>
